<?xml version="1.0" standalone="no"?>
<!DOCTYPE svg PUBLIC "-//W3C//DTD SVG 20010904//EN"
 "http://www.w3.org/TR/2001/REC-SVG-20010904/DTD/svg10.dtd">
<svg version="1.0" xmlns="http://www.w3.org/2000/svg"
 width="772.000000pt" height="239.000000pt" viewBox="0 0 772.000000 239.000000"
 preserveAspectRatio="xMidYMid meet">

<g transform="translate(0.000000,239.000000) scale(0.100000,-0.100000)"
fill="#000000" stroke="none">
<path d="M620 1357 c-44 -36 -149 -219 -195 -340 -57 -152 -12 -281 119 -347
92 -46 187 -37 273 27 39 28 81 96 88 144 5 25 1 20 -13 -19 -81 -223 -393
-219 -470 7 -17 49 -15 100 8 166 26 76 100 221 150 294 65 97 97 94 166 -15
55 -85 68 -97 27 -24 -57 103 -111 141 -153 107z"/>
<path d="M1106 1348 c-3 -13 -6 -170 -6 -349 0 -267 3 -329 14 -345 12 -16 17
-17 28 -6 17 17 25 653 9 695 -13 33 -36 35 -45 5z"/>
<path d="M4970 1363 c-43 -16 -66 -74 -42 -109 21 -32 95 -44 146 -24 55 21
59 98 6 125 -29 15 -81 19 -110 8z"/>
<path d="M1350 1301 l0 -61 30 0 30 0 0 -170 0 -170 -35 0 -36 0 3 -57 3 -58
200 1 c182 0 204 2 247 21 67 30 90 71 85 147 -3 55 -7 62 -45 97 -23 20 -42
39 -42 42 0 2 9 7 19 10 29 7 61 66 61 112 0 56 -19 86 -70 115 -43 24 -54 25
-247 28 l-203 4 0 -61z m328 -77 c48 -33 12 -104 -53 -104 l-35 0 0 60 0 60
33 0 c18 0 43 -7 55 -16z m10 -206 c6 -6 12 -28 12 -50 0 -35 -3 -40 -35 -54
-67 -28 -75 -22 -75 49 0 35 3 67 7 71 10 9 74 -2 91 -16z"/>
<path d="M3880 1301 l0 -61 30 0 30 0 0 -170 0 -170 -35 0 -35 0 0 -61 0 -62
203 5 c230 5 278 17 317 80 39 65 18 162 -45 204 -30 20 -32 30 -6 37 29 7 61
66 61 110 0 54 -24 93 -73 119 -39 20 -59 23 -244 26 l-203 4 0 -61z m330 -81
c40 -40 17 -88 -48 -97 l-42 -6 0 62 0 61 35 0 c22 0 43 -8 55 -20z m-21 -191
c34 -12 47 -42 37 -83 -6 -24 -48 -46 -87 -46 -17 0 -19 8 -19 63 0 83 6 88
69 66z"/>
<path d="M3655 1334 c-60 -7 -111 -12 -112 -13 -2 -1 -3 -21 -3 -46 0 -43 1
-45 30 -45 29 0 30 -1 30 -50 0 -27 -2 -50 -5 -50 -3 0 -18 9 -34 21 -34 25
-105 28 -149 5 -55 -28 -92 -100 -92 -179 0 -69 38 -150 82 -177 48 -29 118
-27 156 5 37 31 42 31 42 0 l0 -25 105 0 105 0 0 55 c0 48 -2 55 -20 55 -19 0
-20 8 -22 228 l-3 227 -110 -11z m-67 -276 c16 -14 16 -150 0 -166 -7 -7 -27
-12 -45 -12 -44 0 -65 33 -65 102 0 44 4 56 27 75 27 24 53 24 83 1z"/>
<path d="M2035 1331 l-60 -6 -3 -47 c-3 -47 -3 -48 27 -48 l31 0 0 -170 0
-170 -30 0 c-30 0 -30 -1 -30 -55 l0 -56 141 3 142 3 1 50 c1 47 0 50 -26 53
l-28 3 0 225 0 224 -52 -2 c-29 -1 -80 -4 -113 -7z"/>
<path d="M5495 1331 l-60 -6 -3 -47 c-3 -47 -3 -48 27 -48 30 0 31 -1 31 -50
0 -27 -3 -50 -6 -50 -3 0 -19 10 -36 21 -44 32 -118 29 -164 -6 -102 -78 -98
-273 6 -343 46 -31 127 -27 165 8 l25 23 0 -26 0 -27 110 0 110 0 0 55 c0 52
-1 55 -25 55 l-25 0 0 225 0 225 -47 -2 c-27 -1 -75 -4 -108 -7z m-17 -273 c7
-7 12 -36 12 -79 0 -76 -14 -99 -59 -99 -44 0 -66 33 -66 97 0 48 4 58 28 79
29 25 55 25 85 2z"/>
<path d="M2488 1169 c-93 -14 -157 -79 -166 -168 -12 -127 76 -220 209 -221
138 0 219 71 219 194 0 30 -5 67 -11 83 -32 84 -132 129 -251 112z m91 -125
c15 -33 14 -103 -2 -134 -16 -31 -56 -39 -74 -14 -7 10 -13 45 -13 81 0 49 4
67 19 82 24 24 55 18 70 -15z"/>
<path d="M2988 1169 c-93 -14 -157 -79 -166 -168 -12 -127 76 -220 209 -221
138 0 219 71 219 194 0 63 -12 101 -43 134 -46 50 -132 74 -219 61z m93 -126
c13 -34 11 -104 -4 -133 -16 -31 -56 -39 -74 -14 -7 10 -13 45 -13 81 0 49 4
67 19 82 25 25 59 17 72 -16z"/>
<path d="M6461 1169 c-81 -15 -134 -67 -151 -147 -21 -99 24 -190 112 -226 49
-21 161 -20 221 0 l47 16 0 48 0 48 -52 -20 c-65 -24 -119 -17 -148 19 -38 49
-30 53 95 53 l115 0 0 42 c0 112 -112 190 -239 167z m93 -95 c9 -8 16 -26 16
-40 0 -22 -4 -24 -50 -24 -45 0 -50 2 -50 22 0 47 53 74 84 42z"/>
<path d="M827 1135 c9 -19 18 -33 21 -31 4 5 -26 66 -33 66 -3 0 3 -16 12 -35z"/>
<path d="M4550 1161 l-55 -6 -3 -47 c-3 -43 -1 -48 17 -48 20 0 21 -6 21 -85
0 -78 -2 -85 -20 -85 -18 0 -20 -7 -20 -55 l0 -55 135 0 135 0 0 55 c0 54 0
55 -30 55 -30 0 -30 1 -30 53 0 32 6 61 16 76 15 20 23 23 65 19 l49 -5 0 68
c0 53 -3 69 -14 69 -25 0 -70 -20 -93 -42 l-23 -21 0 31 c0 32 0 32 -47 30
-27 -1 -73 -4 -103 -7z"/>
<path d="M4990 1156 l-95 -11 -3 -42 c-3 -38 -1 -43 17 -43 20 0 21 -6 21 -85
0 -78 -2 -85 -20 -85 -18 0 -20 -7 -20 -55 l0 -55 130 0 130 0 0 55 c0 52 -1
55 -25 55 l-25 0 0 140 c0 77 -3 139 -7 139 -5 -1 -51 -7 -103 -13z"/>
<path d="M5839 1147 c-116 -77 -98 -291 29 -357 27 -13 92 -5 135 17 36 18 43
12 28 -25 -21 -51 -74 -63 -168 -38 l-53 14 0 -48 0 -49 48 -8 c68 -12 181 -9
225 6 54 18 105 66 117 109 5 20 10 94 10 165 0 106 2 127 15 127 12 0 15 13
15 55 l0 55 -90 0 c-49 0 -90 -4 -90 -8 0 -5 -6 -17 -14 -27 -13 -18 -15 -18
-46 8 -42 36 -111 37 -161 4z m175 -77 c25 -9 26 -13 26 -88 0 -87 -8 -102
-56 -102 -42 0 -57 20 -62 84 -6 71 9 96 65 115 1 1 13 -3 27 -9z"/>
<path d="M851 1085 c0 -5 6 -21 14 -35 8 -14 14 -20 14 -15 0 6 -6 21 -14 35
-8 14 -14 21 -14 15z"/>
<path d="M902 940 c0 -14 2 -19 5 -12 2 6 2 18 0 25 -3 6 -5 1 -5 -13z"/>
<path d="M846 868 c-10 -65 -63 -123 -136 -149 -49 -17 -51 -19 -15 -13 21 3
52 12 67 20 54 28 111 132 96 176 -3 7 -8 -8 -12 -34z"/>
<path d="M911 894 c0 -11 3 -14 6 -6 3 7 2 16 -1 19 -3 4 -6 -2 -5 -13z"/>
</g>
</svg>
